<svg width="30" height="30" viewBox="0 0 30 30" fill="none" xmlns="http://www.w3.org/2000/svg">
  <path class="st0" d="M29,10.7c-0.3-0.9-1.2-1.6-2.2-1.6h-7.4c0,0-0.1,0-0.1,0l-2.5-7.5c-0.2-0.6-0.7-1.1-1.3-1.4
    c-0.5-0.2-1.2-0.2-1.7,0c-0.6,0.3-1,0.7-1.3,1.4L9.8,9c0,0.1-0.1,0.1-0.2,0.1H2.3c-1.3,0-2.3,1.1-2.3,2.3c0,0.6,0.3,1.4,0.8,1.8
    l6.3,5.2c0,0,0,0.1,0,0.1l-2.6,7.8c-0.3,0.8-0.1,1.6,0.4,2.2c0.2,0.3,0.5,0.6,0.9,0.7c0.2,0.1,0.4,0.1,0.6,0.1c0.1,0,0.2,0,0.3,0
    c0.5,0,0.9-0.2,1.4-0.5l6.3-4.7c0.1-0.1,0.2,0,0.2,0L21,29c1,0.7,2.4,0.5,3.2-0.5c0.5-0.7,0.6-1.4,0.3-2.1L22,18.5l6.4-5.3
    C29.1,12.5,29.3,11.6,29,10.7z M27.7,12.5l-6.3,5.2c-0.5,0.3-0.6,0.8-0.4,1.2l2.6,7.9c0.2,0.5,0,0.9-0.2,1.2
    c-0.4,0.5-1.2,0.8-1.9,0.3l-6.5-4.8c-0.2-0.1-0.4-0.1-0.6-0.1V1.1c0.2,0,0.4,0,0.6,0.1c0.3,0.1,0.6,0.4,0.7,0.8l2.6,7.6
    c0.2,0.4,0.6,0.6,1.1,0.6h7.4c0.5,0,1.1,0.4,1.2,0.9C28.2,11.6,28.1,12.1,27.7,12.5z" fill="#FFD43C"/>/>
  </svg>
