<svg width="60" height="60" viewBox="0 0 60 60" fill="none" xmlns="http://www.w3.org/2000/svg">
<path d="M59.8443 17.6308C59.7058 14.4462 59.1983 12.2769 58.4601 10.3385C57.6757 8.35385 56.6606 6.69231 54.9995 5.03077C53.3385 3.36923 51.6774 2.35385 49.6934 1.56923C47.8016 0.830769 45.5868 0.323077 42.4032 0.184615C39.1733 0.0461538 38.1582 0 29.9913 0C21.8245 0 20.8555 0.0461538 17.6257 0.184615C14.442 0.323077 12.2734 0.830769 10.3355 1.56923C8.35144 2.35385 6.69038 3.36923 5.02932 5.03077C3.36826 6.69231 2.35317 8.35385 1.56878 10.3385C0.83053 12.2308 0.322984 14.4462 0.184562 17.6308C0.0461405 20.8615 0 21.8769 0 30C0 38.1692 0.0461405 39.1846 0.184562 42.3692C0.322984 45.5538 0.83053 47.7231 1.56878 49.6615C2.35317 51.6462 3.36826 53.3077 5.02932 54.9692C6.69038 56.6308 8.35144 57.6462 10.3355 58.4308C12.2272 59.1692 14.442 59.6769 17.6257 59.8154C20.8094 59.9538 21.8706 60 29.9913 60C38.1121 60 39.1733 59.9538 42.357 59.8154C45.5407 59.6769 47.7093 59.1692 49.6472 58.4308C51.6313 57.6462 53.2923 56.6308 54.9534 54.9692C56.6144 53.3077 57.6295 51.6462 58.4139 49.6615C59.1522 47.7692 59.6597 45.5538 59.7981 42.3692C59.9366 39.1846 59.9827 38.1231 59.9827 30C60.0288 21.8769 59.9827 20.8615 59.8443 17.6308ZM54.4458 42.1385C54.3074 45.0462 53.7999 46.6615 53.4307 47.7231C52.8771 49.1077 52.2311 50.1231 51.1699 51.1846C50.1086 52.2462 49.1397 52.8923 47.7093 53.4462C46.6481 53.8615 45.0793 54.3692 42.1263 54.4615C38.9426 54.6 38.0198 54.6462 29.9913 54.6462C21.9629 54.6462 21.0401 54.6 17.8564 54.4615C14.9495 54.3231 13.3346 53.8154 12.2734 53.4462C10.8892 52.8923 9.87407 52.2462 8.81284 51.1846C7.75161 50.1231 7.10564 49.1077 6.55196 47.7231C6.13669 46.6615 5.62915 45.0923 5.53686 42.1385C5.39844 38.9538 5.3523 38.0308 5.3523 30C5.3523 21.9692 5.39844 21.0462 5.53686 17.8615C5.67529 14.9077 6.18283 13.3385 6.55196 12.2769C7.10564 10.8923 7.75161 9.87692 8.81284 8.81538C9.87407 7.75385 10.843 7.10769 12.2734 6.55385C13.3346 6.13846 14.9034 5.63077 17.8564 5.53846C21.0401 5.4 21.9629 5.35385 29.9913 5.35385C38.0198 5.35385 38.9426 5.4 42.1263 5.53846C45.0332 5.67692 46.6481 6.13846 47.7093 6.55385C49.0935 7.10769 50.1086 7.75385 51.1699 8.81538C52.2311 9.87692 52.8771 10.8462 53.4307 12.2769C53.846 13.3385 54.3535 14.9077 54.4458 17.8615C54.5843 21.0462 54.6304 21.9692 54.6304 30C54.6304 38.0308 54.5843 39 54.4458 42.1385ZM29.9913 14.6308C21.5015 14.6308 14.5804 21.5077 14.5804 30.0462C14.5804 38.5385 21.4554 45.4615 29.9913 45.4615C38.4812 45.4615 45.4023 38.5846 45.4023 30.0462C45.4023 21.5077 38.5273 14.6308 29.9913 14.6308ZM29.9913 40.0615C24.4545 40.0615 19.9789 35.5385 19.9789 30C19.9789 24.4615 24.4545 19.9846 29.9913 19.9846C35.5282 19.9846 40.0038 24.4615 40.0038 30C40.05 35.5385 35.5282 40.0615 29.9913 40.0615ZM46.0021 10.4308C44.0181 10.4308 42.4032 12.0462 42.4032 14.0308C42.4032 16.0154 44.0181 17.6308 46.0021 17.6308C47.9862 17.6308 49.6011 16.0154 49.6011 14.0308C49.6011 12.0462 47.9862 10.4308 46.0021 10.4308Z" fill="white"/>
</svg>
