<svg width="30" height="30" viewBox="0 0 30 30" fill="none" xmlns="http://www.w3.org/2000/svg">
<path d="M29.0189 10.6882C28.7687 9.93771 28.0183 9.43738 27.2678 9.43738H19.6378C19.3876 9.43738 19.1375 9.3123 19.0124 9.06213L16.3857 1.30708C16.0104 0.306431 14.8847 -0.193895 14.0091 0.18135C13.5088 0.431513 13.1336 0.806757 12.8834 1.30708L10.1316 9.06213C10.0065 9.3123 9.75636 9.43738 9.50619 9.43738H1.87622C0.87557 9.43738 0 10.3129 0 11.3136C0 11.8139 0.250163 12.4393 0.625407 12.8146L7.12965 18.1931C7.37981 18.3182 7.37981 18.5683 7.37981 18.8185L4.62802 26.9488C4.25277 27.9494 4.87818 28.9501 5.75375 29.3253C6.37916 29.5755 7.00456 29.4504 7.50489 29.0752L14.1342 24.197C14.3844 24.0719 14.6345 24.0719 14.8847 24.197L21.514 29.0752C22.3896 29.7006 23.5153 29.4504 24.1407 28.6999C24.516 28.1996 24.6411 27.5742 24.3909 26.9488L21.7642 18.8185C21.6391 18.5683 21.7642 18.3182 22.0143 18.1931L28.5186 12.8146C29.144 12.1892 29.2691 11.4387 29.0189 10.6882Z" fill="#FFD43C"/>
</svg>
