<svg width="68" height="18" viewBox="0 0 68 18" fill="none" xmlns="http://www.w3.org/2000/svg">
<g clip-path="url(#clip0)">
<path d="M20.6494 2.33105H24.0721V15.7497H20.6494V2.33105Z" fill="white"/>
<path d="M25.6589 5.6857H28.4696V6.75104H28.5149C28.8322 6.25237 29.4669 5.3457 31.2576 5.3457C32.2096 5.3457 33.2976 5.7537 33.8416 6.20704C34.3856 6.68304 34.9976 7.47637 34.9976 9.44837V15.7497H31.9602V10.2644C31.9602 9.5617 31.9602 8.17904 30.3736 8.17904C28.6509 8.17904 28.6509 9.67504 28.6509 10.287V15.7724H25.6362V5.6857H25.6589Z" fill="white"/>
<path d="M36.5161 7.97536H35.3828V5.68603H36.5161V5.1647C36.5161 2.33136 38.8961 2.08203 40.3695 2.08203H40.8001V4.3487H40.4601C40.2108 4.3487 39.5308 4.43936 39.5308 5.3007V5.7087H40.8001V7.99803H39.5308V15.7727H36.5161V7.97536Z" fill="white"/>
<path d="M42.092 2.33105H45.1067V15.7497H42.092V2.33105Z" fill="white"/>
<path d="M55.8733 15.7495H53.04V14.6842H52.9947C52.3827 15.9762 51.136 16.0895 50.388 16.0895C49.776 16.0895 48.3253 15.9535 47.4413 14.8202C46.648 13.8229 46.5347 13.0975 46.5347 11.7149V5.68555H49.5493V11.2615C49.5493 11.9415 49.5493 13.2789 51.1587 13.2789C52.02 13.2789 52.8813 12.8255 52.8813 11.2389V5.68555H55.896V15.7495H55.8733Z" fill="white"/>
<path d="M67.5016 5.68555L64.1016 10.3549L68.0003 15.7495H64.3283L62.311 12.6215L60.271 15.7495H56.6443L60.475 10.3549L57.075 5.68555H60.679L62.311 8.33755L63.9203 5.68555H67.5016Z" fill="white"/>
<path d="M17 0.585938H0V17.5859H17V0.585938Z" fill="#F37021"/>
<path d="M7.09473 9.76663L9.74673 5.89062V13.6426H7.09473V9.76663Z" fill="white"/>
<path opacity="0.5" d="M9.74673 4.53027H7.09473V8.40627L9.74673 4.53027Z" fill="white"/>
</g>
<defs>
<clipPath id="clip0">
<rect width="68" height="17" fill="white" transform="translate(0 0.585938)"/>
</clipPath>
</defs>
</svg>
