<svg width="68" height="17" viewBox="0 0 68 17" fill="none" xmlns="http://www.w3.org/2000/svg">
<g clip-path="url(#clip0)">
<path d="M24.0794 1.75391H20.6508V15.1743H24.0794V1.75391Z" fill="#424648"/>
<path d="M25.6593 5.11066H28.4717V6.1793H28.5078C28.8159 5.69087 29.4518 4.76318 31.2481 4.76318C32.2085 4.76318 33.2804 5.16311 33.8245 5.63515C34.3687 6.10719 34.9849 6.90375 34.9849 8.88042V15.1743H31.9725V9.68027C31.9725 8.97221 31.9725 7.59542 30.3926 7.59542C28.6684 7.59542 28.6684 9.08366 28.6684 9.69994V15.1776H25.656V5.11066H25.6593Z" fill="#424648"/>
<path d="M36.5059 7.39541H35.3816V5.1106H36.5059V4.58612C36.5059 1.75715 38.8824 1.50146 40.3509 1.50146H40.7868V3.76988H40.4427C40.1903 3.76988 39.5183 3.86167 39.5183 4.71396V5.11388H40.7868V7.39869H39.5183V15.1808H36.5059V7.39541Z" fill="#424648"/>
<path d="M45.1071 1.75391H42.0947V15.1743H45.1071V1.75391Z" fill="#424648"/>
<path d="M55.8816 15.174H53.0331V14.1053H52.997C52.3808 15.3936 51.1483 15.5018 50.3845 15.5018C49.7683 15.5018 48.3162 15.3576 47.4279 14.2332C46.6281 13.2367 46.5199 12.5089 46.5199 11.1321V5.11035H49.5323V10.6798C49.5323 11.3682 49.5323 12.6925 51.1483 12.6925C52.0202 12.6925 52.8725 12.2401 52.8725 10.6437V5.11035H55.8849V15.174H55.8816Z" fill="#424648"/>
<path d="M63.9191 5.11035L62.3063 7.75574L60.6707 5.11035H57.0617L60.4543 9.78814L56.6257 15.174H60.2544L62.3063 12.0566L64.319 15.174H68L64.1026 9.78814L67.492 5.11035H63.9191Z" fill="#424648"/>
<path d="M17.0025 0H0V17H17.0025V0Z" fill="url(#paint0_linear)"/>
<path d="M7.08679 9.19177L9.74517 5.31055V13.0664H7.08679V9.19177Z" fill="white"/>
<path d="M9.74517 3.93701H7.08679V7.81823L9.74517 3.93701Z" fill="#F9B78E"/>
</g>
<defs>
<linearGradient id="paint0_linear" x1="17.8371" y1="0.21739" x2="-0.94874" y2="5.12118" gradientUnits="userSpaceOnUse">
<stop stop-color="#EA1877"/>
<stop offset="1" stop-color="#FF8732"/>
</linearGradient>
<clipPath id="clip0">
<rect width="68" height="17" fill="white"/>
</clipPath>
</defs>
</svg>
