<svg width="27" height="30" viewBox="0 0 27 30" fill="none" xmlns="http://www.w3.org/2000/svg" xmlns:xlink="http://www.w3.org/1999/xlink">
<path d="M13.6958 4.82486C12.2629 4.82655 10.8564 5.21128 9.62216 5.93923C8.38789 6.66717 7.37067 7.71185 6.67586 8.96507C5.98104 10.2183 5.63389 11.6345 5.67037 13.0669C5.70685 14.4994 6.12562 15.8961 6.88332 17.1123C6.96394 17.2639 7.07491 17.3972 7.20931 17.504C7.34371 17.6108 7.49866 17.6887 7.66451 17.733C7.83035 17.7773 8.00354 17.7869 8.17328 17.7613C8.34301 17.7357 8.50566 17.6754 8.65107 17.5842C8.79649 17.493 8.92156 17.3728 9.0185 17.2312C9.11543 17.0895 9.18215 16.9294 9.21449 16.7608C9.24684 16.5922 9.24411 16.4188 9.20649 16.2513C9.16887 16.0838 9.09716 15.9259 8.99582 15.7873C8.46887 14.9495 8.17612 13.9857 8.14805 12.9963C8.11998 12.0069 8.35761 11.0281 8.83621 10.1617C9.31481 9.29529 10.0169 8.57302 10.8693 8.07004C11.7218 7.56706 12.6935 7.30177 13.6833 7.30177C14.6731 7.30177 15.6448 7.56706 16.4973 8.07004C17.3497 8.57302 18.0518 9.29529 18.5304 10.1617C19.009 11.0281 19.2466 12.0069 19.2186 12.9963C19.1905 13.9857 18.8978 14.9495 18.3708 15.7873C18.1934 16.0675 18.1346 16.4066 18.2073 16.7301C18.28 17.0536 18.4782 17.335 18.7583 17.5123C19.0384 17.6897 19.3775 17.7485 19.701 17.6758C20.0245 17.6032 20.3059 17.405 20.4833 17.1248C21.2431 15.9102 21.6645 14.5145 21.7037 13.0823C21.7429 11.6501 21.3985 10.2334 20.7063 8.97901C20.0141 7.72459 18.9991 6.67801 17.7666 5.94762C16.534 5.21724 15.1285 4.82961 13.6958 4.82486Z" fill="url(#pattern0)"/>
<path d="M13.6958 4.82486C12.2629 4.82655 10.8564 5.21128 9.62216 5.93923C8.38789 6.66717 7.37067 7.71185 6.67586 8.96507C5.98104 10.2183 5.63389 11.6345 5.67037 13.0669C5.70685 14.4994 6.12562 15.8961 6.88332 17.1123C6.96394 17.2639 7.07491 17.3972 7.20931 17.504C7.34371 17.6108 7.49866 17.6887 7.66451 17.733C7.83035 17.7773 8.00354 17.7869 8.17328 17.7613C8.34301 17.7357 8.50566 17.6754 8.65107 17.5842C8.79649 17.493 8.92156 17.3728 9.0185 17.2312C9.11543 17.0895 9.18215 16.9294 9.21449 16.7608C9.24684 16.5922 9.24411 16.4188 9.20649 16.2513C9.16887 16.0838 9.09716 15.9259 8.99582 15.7873C8.46887 14.9495 8.17612 13.9857 8.14805 12.9963C8.11998 12.0069 8.35761 11.0281 8.83621 10.1617C9.31481 9.29529 10.0169 8.57302 10.8693 8.07004C11.7218 7.56706 12.6935 7.30177 13.6833 7.30177C14.6731 7.30177 15.6448 7.56706 16.4973 8.07004C17.3497 8.57302 18.0518 9.29529 18.5304 10.1617C19.009 11.0281 19.2466 12.0069 19.2186 12.9963C19.1905 13.9857 18.8978 14.9495 18.3708 15.7873C18.1934 16.0675 18.1346 16.4066 18.2073 16.7301C18.28 17.0536 18.4782 17.335 18.7583 17.5123C19.0384 17.6897 19.3775 17.7485 19.701 17.6758C20.0245 17.6032 20.3059 17.405 20.4833 17.1248C21.2431 15.9102 21.6645 14.5145 21.7037 13.0823C21.7429 11.6501 21.3985 10.2334 20.7063 8.97901C20.0141 7.72459 18.9991 6.67801 17.7666 5.94762C16.534 5.21724 15.1285 4.82961 13.6958 4.82486Z" fill="black"/>
<path d="M13.6958 3.54361e-05C11.1484 0.00140145 8.65641 0.744066 6.52383 2.13745C4.39125 3.53083 2.71025 5.5147 1.68585 7.84708C0.661461 10.1795 0.337953 12.7596 0.754791 15.2726C1.17163 17.7857 2.31079 20.1232 4.03334 22C4.26278 22.2196 4.56719 22.3436 4.88475 22.3469C5.20232 22.3501 5.50922 22.2324 5.74313 22.0176C5.97703 21.8028 6.12041 21.507 6.14413 21.1903C6.16785 20.8736 6.07014 20.5597 5.87084 20.3125C4.47897 18.7919 3.55952 16.8992 3.22455 14.8651C2.88958 12.831 3.15357 10.7435 3.98433 8.85681C4.81509 6.97016 6.17675 5.36593 7.90333 4.23965C9.62992 3.11336 11.6469 2.51367 13.7083 2.51367C15.7698 2.51367 17.7867 3.11336 19.5133 4.23965C21.2399 5.36593 22.6015 6.97016 23.4323 8.85681C24.2631 10.7435 24.5271 12.831 24.1921 14.8651C23.8571 16.8992 22.9377 18.7919 21.5458 20.3125C21.435 20.434 21.3492 20.5761 21.2933 20.7307C21.2374 20.8853 21.2126 21.0494 21.2201 21.2137C21.2276 21.3779 21.2675 21.5391 21.3373 21.6879C21.4071 21.8368 21.5056 21.9704 21.627 22.0812C21.7485 22.192 21.8906 22.2778 22.0453 22.3337C22.1999 22.3896 22.364 22.4145 22.5282 22.4069C22.6925 22.3994 22.8536 22.3596 23.0025 22.2897C23.1514 22.2199 23.285 22.1215 23.3958 22C25.1205 20.1209 26.2603 17.7799 26.6759 15.2634C27.0915 12.7468 26.7648 10.1637 25.7358 7.82989C24.7067 5.49605 23.02 3.5126 20.8818 2.12205C18.7435 0.731499 16.2464 -0.00589032 13.6958 3.54361e-05Z" fill="url(#pattern1)"/>
<path d="M13.6958 3.54361e-05C11.1484 0.00140145 8.65641 0.744066 6.52383 2.13745C4.39125 3.53083 2.71025 5.5147 1.68585 7.84708C0.661461 10.1795 0.337953 12.7596 0.754791 15.2726C1.17163 17.7857 2.31079 20.1232 4.03334 22C4.26278 22.2196 4.56719 22.3436 4.88475 22.3469C5.20232 22.3501 5.50922 22.2324 5.74313 22.0176C5.97703 21.8028 6.12041 21.507 6.14413 21.1903C6.16785 20.8736 6.07014 20.5597 5.87084 20.3125C4.47897 18.7919 3.55952 16.8992 3.22455 14.8651C2.88958 12.831 3.15357 10.7435 3.98433 8.85681C4.81509 6.97016 6.17675 5.36593 7.90333 4.23965C9.62992 3.11336 11.6469 2.51367 13.7083 2.51367C15.7698 2.51367 17.7867 3.11336 19.5133 4.23965C21.2399 5.36593 22.6015 6.97016 23.4323 8.85681C24.2631 10.7435 24.5271 12.831 24.1921 14.8651C23.8571 16.8992 22.9377 18.7919 21.5458 20.3125C21.435 20.434 21.3492 20.5761 21.2933 20.7307C21.2374 20.8853 21.2126 21.0494 21.2201 21.2137C21.2276 21.3779 21.2675 21.5391 21.3373 21.6879C21.4071 21.8368 21.5056 21.9704 21.627 22.0812C21.7485 22.192 21.8906 22.2778 22.0453 22.3337C22.1999 22.3896 22.364 22.4145 22.5282 22.4069C22.6925 22.3994 22.8536 22.3596 23.0025 22.2897C23.1514 22.2199 23.285 22.1215 23.3958 22C25.1205 20.1209 26.2603 17.7799 26.6759 15.2634C27.0915 12.7468 26.7648 10.1637 25.7358 7.82989C24.7067 5.49605 23.02 3.5126 20.8818 2.12205C18.7435 0.731499 16.2464 -0.00589032 13.6958 3.54361e-05Z" fill="black"/>
<path d="M15.2833 18.75H12.1083C11.7555 18.7478 11.4063 18.8204 11.0836 18.9629C10.7608 19.1053 10.4719 19.3145 10.2358 19.5766C9.99962 19.8387 9.82163 20.1478 9.71349 20.4836C9.60536 20.8194 9.56952 21.1743 9.60833 21.525L10.3083 27.775C10.3763 28.3893 10.6694 28.9566 11.1311 29.3675C11.5928 29.7784 12.1903 30.0037 12.8083 30H14.5833C15.2014 30.0037 15.7989 29.7784 16.2606 29.3675C16.7222 28.9566 17.0153 28.3893 17.0833 27.775L17.7833 21.525C17.8221 21.1743 17.7863 20.8194 17.6782 20.4836C17.57 20.1478 17.392 19.8387 17.1559 19.5766C16.9198 19.3145 16.6308 19.1053 16.3081 18.9629C15.9853 18.8204 15.6361 18.7478 15.2833 18.75Z" fill="url(#pattern2)"/>
<path d="M15.2833 18.75H12.1083C11.7555 18.7478 11.4063 18.8204 11.0836 18.9629C10.7608 19.1053 10.4719 19.3145 10.2358 19.5766C9.99962 19.8387 9.82163 20.1478 9.71349 20.4836C9.60536 20.8194 9.56952 21.1743 9.60833 21.525L10.3083 27.775C10.3763 28.3893 10.6694 28.9566 11.1311 29.3675C11.5928 29.7784 12.1903 30.0037 12.8083 30H14.5833C15.2014 30.0037 15.7989 29.7784 16.2606 29.3675C16.7222 28.9566 17.0153 28.3893 17.0833 27.775L17.7833 21.525C17.8221 21.1743 17.7863 20.8194 17.6782 20.4836C17.57 20.1478 17.392 19.8387 17.1559 19.5766C16.9198 19.3145 16.6308 19.1053 16.3081 18.9629C15.9853 18.8204 15.6361 18.7478 15.2833 18.75Z" fill="black"/>
<path d="M10.5708 13.1253C10.5708 13.9541 10.9001 14.7489 11.4861 15.335C12.0722 15.921 12.867 16.2503 13.6958 16.2503C14.5246 16.2503 15.3195 15.921 15.9055 15.335C16.4916 14.7489 16.8208 13.9541 16.8208 13.1253C16.8208 12.2965 16.4916 11.5016 15.9055 10.9156C15.3195 10.3295 14.5246 10.0003 13.6958 10.0003C12.867 10.0003 12.0722 10.3295 11.4861 10.9156C10.9001 11.5016 10.5708 12.2965 10.5708 13.1253Z" fill="url(#pattern3)"/>
<path d="M10.5708 13.1253C10.5708 13.9541 10.9001 14.7489 11.4861 15.335C12.0722 15.921 12.867 16.2503 13.6958 16.2503C14.5246 16.2503 15.3195 15.921 15.9055 15.335C16.4916 14.7489 16.8208 13.9541 16.8208 13.1253C16.8208 12.2965 16.4916 11.5016 15.9055 10.9156C15.3195 10.3295 14.5246 10.0003 13.6958 10.0003C12.867 10.0003 12.0722 10.3295 11.4861 10.9156C10.9001 11.5016 10.5708 12.2965 10.5708 13.1253Z" fill="black"/>
<defs>

</defs>
</svg>
