<svg width="27" height="30" viewBox="0 0 27 30" fill="none" xmlns="http://www.w3.org/2000/svg" xmlns:xlink="http://www.w3.org/1999/xlink">
<path d="M25.0976 7.75724C25.0918 7.46395 25.0853 7.17149 25.0795 6.87821C24.1448 6.79137 22.6563 6.49563 21.3603 5.4503C21.0775 5.17126 20.8126 4.87466 20.5672 4.56226C19.7944 3.56965 19.2236 2.43522 18.887 1.2231L18.4307 1.23129C18.4184 1.19443 18.4061 1.15674 18.3947 1.11742C18.2877 0.754674 18.2347 0.378171 18.2374 0L13.263 0.0286727L13.322 19.6704C13.322 20.7239 12.4602 22.4975 10.8742 23.2684C10.2802 23.544 9.63241 23.6839 8.97768 23.678C8.33541 23.678 7.72836 23.5519 7.29171 23.3233C6.25785 21.9413 6.162 19.4992 7.61367 17.9934C8.55004 17.0227 9.77151 16.8138 10.6489 16.8138C11.0265 16.811 11.4033 16.8505 11.7721 16.9317L11.831 11.9181C11.4909 11.878 11.1487 11.858 10.8062 11.8583C10.6964 11.8583 10.5793 11.8583 10.4588 11.8656V11.8575L10.481 10.6647C8.4825 10.3306 6.42976 10.6768 4.65136 11.6477C1.875 13.1961 0.878826 15.7439 0.61094 16.4549C0.196864 17.5675 -2.8884e-05 18.7491 0.030929 19.9358C0.0431987 21.0816 0.282339 22.2137 0.734541 23.2666C1.18674 24.3195 1.84305 25.2723 2.66555 26.0702C3.12384 26.5101 3.62095 26.9077 4.15081 27.2581L4.23929 27.3228L4.25157 27.3383C5.71061 29.071 8.16419 30 10.6382 30C12.1129 30 13.5875 29.6723 14.8695 28.9874C16.5801 28.074 18.2579 26.3561 19.0279 24.2097C19.1754 23.8001 19.2401 23.5085 19.3687 22.9285C19.7693 21.1262 19.6563 20.2447 19.6767 15.6865C19.6767 14.9492 19.6858 14.2545 19.6849 13.0314C19.6849 12.1131 19.68 11.3569 19.6767 10.8498C21.6787 12.2966 24.0786 13.0897 26.5484 13.1207L26.5779 8.16603C26.0754 8.06494 25.5807 7.92834 25.0976 7.75724ZM24.6879 7.59339C24.2716 7.41533 23.8657 7.21375 23.4722 6.98962C23.868 7.10582 24.2719 7.19208 24.6806 7.24768L24.6879 7.59339ZM11.0536 23.6338C12.7125 22.8277 13.7357 20.9467 13.7316 19.6655L13.6743 0.43255L17.8474 0.409612C17.8722 0.689157 17.9249 0.965521 18.0047 1.23457C18.0047 1.23457 18.0047 1.23457 18.0047 1.23949L15.2308 1.28946V1.29519L14.7065 1.30584L14.7655 20.9476C14.754 21.0745 14.4861 23.5093 12.3177 24.5456C11.9966 24.6975 11.659 24.8116 11.3116 24.8856C11.2461 24.8856 11.1798 24.8897 11.115 24.8897C10.4893 24.8851 9.86799 24.7834 9.27342 24.5882C8.91378 24.4653 8.43289 24.3048 7.97495 23.9812C8.30476 24.05 8.64076 24.0848 8.97768 24.0852C9.69452 24.0901 10.4035 23.9359 11.0536 23.6338ZM10.8078 12.2613C11.0121 12.2613 11.2158 12.2687 11.419 12.2835L11.3698 16.441C11.1312 16.4119 10.891 16.3974 10.6505 16.3976C9.70515 16.3976 8.3608 16.6237 7.32039 17.7026C6.53393 18.5218 6.10466 19.6384 6.11039 20.8575C6.11072 21.5302 6.25163 22.1954 6.5241 22.8105C6.33178 22.6533 6.1531 22.4801 5.98997 22.2927C5.7442 22.0068 5.233 21.4031 5.0626 20.4749C4.92907 19.7433 5.08227 19.1641 5.15764 18.8233C5.21744 18.5497 5.57134 17.0628 7.04185 16.1395C8.57708 15.1737 10.1475 15.5661 10.4007 15.6382L10.4539 12.2695C10.576 12.2646 10.6948 12.2613 10.8062 12.2613H10.8078ZM0.440541 19.9227C0.412039 18.7886 0.600278 17.6594 0.995155 16.5958C1.75048 14.5773 3.08336 12.9913 4.85124 12.0033C6.11782 11.3051 7.54127 10.9409 8.98751 10.9448C9.34763 10.9445 9.70742 10.9667 10.0648 11.0112L10.0492 11.8542C8.66458 11.8943 7.30904 12.2612 6.09319 12.9249C3.66747 14.2594 2.45829 16.4394 2.05278 17.7321C1.7132 18.7993 1.55372 19.9156 1.5809 21.0352C1.59237 21.4448 1.65053 23.6141 2.65982 25.4721C2.22636 25.0043 1.84635 24.4897 1.52683 23.9377C0.848155 22.7058 0.47559 21.3288 0.440541 19.9227ZM19.2688 15.1557C19.2688 15.3351 19.2688 15.5087 19.2688 15.6857C19.2647 16.6688 19.2688 17.4642 19.2688 18.1671C19.2745 20.6379 19.2761 21.4702 18.9714 22.8367C18.8428 23.4175 18.7838 23.6821 18.6437 24.0655C17.967 25.9498 16.4842 27.6562 14.6778 28.6204C13.4965 29.2512 12.1006 29.5847 10.6399 29.5847C8.68849 29.5847 6.86572 28.9997 5.5312 27.9798L5.56807 27.9929C5.94982 28.1567 10.0074 29.8165 13.97 27.3998C17.9719 24.9593 18.3234 20.5289 18.348 20.1283V9.64227C18.6426 9.86576 18.9486 10.0738 19.2647 10.2657L19.2688 10.8474C19.2737 11.5658 19.277 12.299 19.277 13.0257C19.2753 13.9612 19.2721 14.5953 19.2688 15.1557ZM26.1503 10.6417L26.1404 12.698C24.1466 12.6019 22.2115 11.9912 20.5238 10.9252C20.8319 11.0603 21.1636 11.1873 21.5175 11.302C22.6957 11.6816 23.9311 11.8526 25.168 11.8075L25.1434 10.4082H25.1533C25.138 9.66985 25.1227 8.93255 25.1074 8.19634C25.4924 8.3266 25.8504 8.4249 26.1658 8.49863L26.1503 10.6417Z" fill="url(#pattern0)"/>
<path d="M25.0976 7.75724C25.0918 7.46395 25.0853 7.17149 25.0795 6.87821C24.1448 6.79137 22.6563 6.49563 21.3603 5.4503C21.0775 5.17126 20.8126 4.87466 20.5672 4.56226C19.7944 3.56965 19.2236 2.43522 18.887 1.2231L18.4307 1.23129C18.4184 1.19443 18.4061 1.15674 18.3947 1.11742C18.2877 0.754674 18.2347 0.378171 18.2374 0L13.263 0.0286727L13.322 19.6704C13.322 20.7239 12.4602 22.4975 10.8742 23.2684C10.2802 23.544 9.63241 23.6839 8.97768 23.678C8.33541 23.678 7.72836 23.5519 7.29171 23.3233C6.25785 21.9413 6.162 19.4992 7.61367 17.9934C8.55004 17.0227 9.77151 16.8138 10.6489 16.8138C11.0265 16.811 11.4033 16.8505 11.7721 16.9317L11.831 11.9181C11.4909 11.878 11.1487 11.858 10.8062 11.8583C10.6964 11.8583 10.5793 11.8583 10.4588 11.8656V11.8575L10.481 10.6647C8.4825 10.3306 6.42976 10.6768 4.65136 11.6477C1.875 13.1961 0.878826 15.7439 0.61094 16.4549C0.196864 17.5675 -2.8884e-05 18.7491 0.030929 19.9358C0.0431987 21.0816 0.282339 22.2137 0.734541 23.2666C1.18674 24.3195 1.84305 25.2723 2.66555 26.0702C3.12384 26.5101 3.62095 26.9077 4.15081 27.2581L4.23929 27.3228L4.25157 27.3383C5.71061 29.071 8.16419 30 10.6382 30C12.1129 30 13.5875 29.6723 14.8695 28.9874C16.5801 28.074 18.2579 26.3561 19.0279 24.2097C19.1754 23.8001 19.2401 23.5085 19.3687 22.9285C19.7693 21.1262 19.6563 20.2447 19.6767 15.6865C19.6767 14.9492 19.6858 14.2545 19.6849 13.0314C19.6849 12.1131 19.68 11.3569 19.6767 10.8498C21.6787 12.2966 24.0786 13.0897 26.5484 13.1207L26.5779 8.16603C26.0754 8.06494 25.5807 7.92834 25.0976 7.75724ZM24.6879 7.59339C24.2716 7.41533 23.8657 7.21375 23.4722 6.98962C23.868 7.10582 24.2719 7.19208 24.6806 7.24768L24.6879 7.59339ZM11.0536 23.6338C12.7125 22.8277 13.7357 20.9467 13.7316 19.6655L13.6743 0.43255L17.8474 0.409612C17.8722 0.689157 17.9249 0.965521 18.0047 1.23457C18.0047 1.23457 18.0047 1.23457 18.0047 1.23949L15.2308 1.28946V1.29519L14.7065 1.30584L14.7655 20.9476C14.754 21.0745 14.4861 23.5093 12.3177 24.5456C11.9966 24.6975 11.659 24.8116 11.3116 24.8856C11.2461 24.8856 11.1798 24.8897 11.115 24.8897C10.4893 24.8851 9.86799 24.7834 9.27342 24.5882C8.91378 24.4653 8.43289 24.3048 7.97495 23.9812C8.30476 24.05 8.64076 24.0848 8.97768 24.0852C9.69452 24.0901 10.4035 23.9359 11.0536 23.6338ZM10.8078 12.2613C11.0121 12.2613 11.2158 12.2687 11.419 12.2835L11.3698 16.441C11.1312 16.4119 10.891 16.3974 10.6505 16.3976C9.70515 16.3976 8.3608 16.6237 7.32039 17.7026C6.53393 18.5218 6.10466 19.6384 6.11039 20.8575C6.11072 21.5302 6.25163 22.1954 6.5241 22.8105C6.33178 22.6533 6.1531 22.4801 5.98997 22.2927C5.7442 22.0068 5.233 21.4031 5.0626 20.4749C4.92907 19.7433 5.08227 19.1641 5.15764 18.8233C5.21744 18.5497 5.57134 17.0628 7.04185 16.1395C8.57708 15.1737 10.1475 15.5661 10.4007 15.6382L10.4539 12.2695C10.576 12.2646 10.6948 12.2613 10.8062 12.2613H10.8078ZM0.440541 19.9227C0.412039 18.7886 0.600278 17.6594 0.995155 16.5958C1.75048 14.5773 3.08336 12.9913 4.85124 12.0033C6.11782 11.3051 7.54127 10.9409 8.98751 10.9448C9.34763 10.9445 9.70742 10.9667 10.0648 11.0112L10.0492 11.8542C8.66458 11.8943 7.30904 12.2612 6.09319 12.9249C3.66747 14.2594 2.45829 16.4394 2.05278 17.7321C1.7132 18.7993 1.55372 19.9156 1.5809 21.0352C1.59237 21.4448 1.65053 23.6141 2.65982 25.4721C2.22636 25.0043 1.84635 24.4897 1.52683 23.9377C0.848155 22.7058 0.47559 21.3288 0.440541 19.9227ZM19.2688 15.1557C19.2688 15.3351 19.2688 15.5087 19.2688 15.6857C19.2647 16.6688 19.2688 17.4642 19.2688 18.1671C19.2745 20.6379 19.2761 21.4702 18.9714 22.8367C18.8428 23.4175 18.7838 23.6821 18.6437 24.0655C17.967 25.9498 16.4842 27.6562 14.6778 28.6204C13.4965 29.2512 12.1006 29.5847 10.6399 29.5847C8.68849 29.5847 6.86572 28.9997 5.5312 27.9798L5.56807 27.9929C5.94982 28.1567 10.0074 29.8165 13.97 27.3998C17.9719 24.9593 18.3234 20.5289 18.348 20.1283V9.64227C18.6426 9.86576 18.9486 10.0738 19.2647 10.2657L19.2688 10.8474C19.2737 11.5658 19.277 12.299 19.277 13.0257C19.2753 13.9612 19.2721 14.5953 19.2688 15.1557ZM26.1503 10.6417L26.1404 12.698C24.1466 12.6019 22.2115 11.9912 20.5238 10.9252C20.8319 11.0603 21.1636 11.1873 21.5175 11.302C22.6957 11.6816 23.9311 11.8526 25.168 11.8075L25.1434 10.4082H25.1533C25.138 9.66985 25.1227 8.93255 25.1074 8.19634C25.4924 8.3266 25.8504 8.4249 26.1658 8.49863L26.1503 10.6417Z" fill="black"/>
<defs>

</defs>
</svg>
