<svg width="22" height="28" viewBox="0 0 22 28" fill="none" xmlns="http://www.w3.org/2000/svg">
<path d="M9.36082 14.1815C9.46894 14.2987 9.62258 14.3648 9.7819 14.3636C10.0835 14.3636 10.3327 14.1292 10.3509 13.8287L11.011 0.980169C11.0531 0.668344 10.8357 0.381556 10.525 0.339448C10.4351 0.326929 10.3452 0.336034 10.2599 0.365623L0.72304 3.67734C0.427148 3.78318 0.272374 4.10866 0.378212 4.40456C0.403249 4.47625 0.443081 4.54226 0.495431 4.59916L9.36082 14.1815ZM21.2648 13.8401L17.7255 7.87674C17.6242 7.70945 17.4432 7.60588 17.2475 7.60361C17.0518 7.60588 16.8685 7.70376 16.7581 7.86536L12.1377 14.9213C11.9681 15.1853 12.0443 15.5381 12.3095 15.7076C12.4006 15.7668 12.5075 15.7976 12.6156 15.7976H12.6953L20.8665 14.6595C21.1772 14.6151 21.3945 14.3272 21.3502 14.0165C21.3399 13.9425 21.3149 13.8708 21.2762 13.806L21.2648 13.8401ZM20.5251 20.327L12.5587 17.5274C12.2628 17.4227 11.9374 17.5775 11.8327 17.8734C11.786 18.0054 11.7894 18.1488 11.8418 18.2785L14.869 25.9489C14.9373 26.1276 15.0909 26.2608 15.2787 26.3017H15.3925C15.5404 26.3029 15.6838 26.246 15.7908 26.1424L20.7299 21.2716C20.9541 21.0508 20.9575 20.6912 20.7368 20.467C20.6742 20.4032 20.5979 20.3554 20.5137 20.327H20.5251ZM10.1233 18.1533C9.91278 18.0759 9.6772 18.1294 9.52015 18.2899L3.76163 24.1736C3.53857 24.3955 3.53743 24.7551 3.75935 24.9782C3.81512 25.034 3.88112 25.0783 3.9551 25.1068L10.4192 27.6788C10.7117 27.7926 11.0417 27.648 11.1567 27.3556C11.1885 27.2736 11.201 27.186 11.1931 27.0984L10.5103 18.6882C10.508 18.4458 10.3532 18.2307 10.1233 18.1533ZM8.93975 16.6625C8.92381 16.4428 8.78156 16.2516 8.57557 16.1731L0.848226 13.2938C0.552333 13.1869 0.226852 13.3394 0.119875 13.6353C0.0948381 13.7047 0.0834576 13.7787 0.0857337 13.8515L0.404387 20.7822C0.413492 20.9757 0.520468 21.1521 0.688899 21.2488C0.861882 21.3467 1.07356 21.3467 1.24654 21.2488L8.64385 17.1974C8.83846 17.0915 8.9534 16.8833 8.93975 16.6625Z" fill="black"/>
</svg>
