<svg width="30" height="31" viewBox="0 0 30 31" fill="none" xmlns="http://www.w3.org/2000/svg">
<path d="M21.875 0.944336H8.125C3.64 0.951836 0.0075 4.58434 0 9.06934V22.8193C0.0075 27.3043 3.64 30.9368 8.125 30.9443H21.875C26.36 30.9368 29.9925 27.3043 30 22.8193V9.06934C29.9925 4.58434 26.36 0.951836 21.875 0.944336ZM15 22.8193C11.2025 22.8193 8.125 19.7418 8.125 15.9443C8.125 12.1468 11.2025 9.06934 15 9.06934C18.7975 9.06934 21.875 12.1468 21.875 15.9443C21.875 19.7418 18.7975 22.8193 15 22.8193ZM23.125 9.06934C22.09 9.06934 21.25 8.22934 21.25 7.19434C21.25 6.15934 22.09 5.31934 23.125 5.31934C24.16 5.31934 25 6.15934 25 7.19434C25 8.22934 24.16 9.06934 23.125 9.06934Z" fill="black"/>
</svg>
