<svg width="22" height="24" viewBox="0 0 22 24" fill="none" xmlns="http://www.w3.org/2000/svg">
<path d="M0.166687 8.20801H5.58335V23.3747H0.166687V8.20801Z" fill="black"/>
<path d="M0.166687 3.33333C0.166687 4.05163 0.449746 4.7405 0.953593 5.24841C1.45744 5.75632 2.14081 6.04167 2.85335 6.04167C3.5659 6.04167 4.24927 5.75632 4.75311 5.24841C5.25696 4.7405 5.54002 4.05163 5.54002 3.33333C5.54002 2.61504 5.25696 1.92616 4.75311 1.41825C4.24927 0.910341 3.5659 0.625 2.85335 0.625C2.14081 0.625 1.45744 0.910341 0.953593 1.41825C0.449746 1.92616 0.166687 2.61504 0.166687 3.33333Z" fill="black"/>
<path d="M18.0417 23.3754H21.2917C21.4353 23.3754 21.5731 23.3184 21.6747 23.2168C21.7763 23.1152 21.8333 22.9774 21.8333 22.8338V13.7338C21.8333 9.64961 19.5258 7.66711 16.2975 7.66711C15.6607 7.64382 15.0261 7.75422 14.4347 7.99119C13.8432 8.22816 13.3079 8.58644 12.8633 9.04294C12.804 9.11154 12.725 9.16031 12.6371 9.1827C12.5492 9.20508 12.4565 9.2 12.3715 9.16815C12.2866 9.13629 12.2134 9.07918 12.1619 9.00451C12.1104 8.92983 12.083 8.84117 12.0833 8.75044C12.0833 8.60678 12.0263 8.46901 11.9247 8.36743C11.8231 8.26584 11.6853 8.20878 11.5417 8.20878H8.29167C8.14801 8.20878 8.01023 8.26584 7.90865 8.36743C7.80707 8.46901 7.75 8.60678 7.75 8.75044V22.8338C7.75 22.9774 7.80707 23.1152 7.90865 23.2168C8.01023 23.3184 8.14801 23.3754 8.29167 23.3754H11.5417C11.6853 23.3754 11.8231 23.3184 11.9247 23.2168C12.0263 23.1152 12.0833 22.9774 12.0833 22.8338V14.7088C12.0833 13.9905 12.3687 13.3016 12.8766 12.7937C13.3845 12.2858 14.0734 12.0004 14.7917 12.0004C15.51 12.0004 16.1988 12.2858 16.7067 12.7937C17.2147 13.3016 17.5 13.9905 17.5 14.7088V22.8338C17.5 22.9774 17.5571 23.1152 17.6586 23.2168C17.7602 23.3184 17.898 23.3754 18.0417 23.3754Z" fill="black"/>
</svg>
