<svg width="33" height="28" viewBox="0 0 33 28" fill="none" xmlns="http://www.w3.org/2000/svg">
<path d="M32.5525 5.89881C32.8363 5.61503 32.8363 5.18938 32.6944 4.9056C32.5525 4.76372 32.4107 4.62183 32.2688 4.62183L31.1337 4.33806C30.708 4.19617 30.5661 3.9124 30.5661 3.48674V3.34485L31.2756 2.06787C31.4174 1.7841 31.2756 1.35844 30.9918 1.07467C30.8499 0.93278 30.708 0.93278 30.5661 1.07467L27.7284 1.92599C27.4446 1.92599 27.3027 1.92599 27.1608 1.7841C25.8839 0.93278 24.465 0.365234 22.9043 0.365234C18.9314 0.365234 15.8099 3.48674 15.8099 7.45956V8.02711C15.8099 8.16899 15.668 8.31088 15.5262 8.31088C11.4114 8.73654 7.58051 6.75013 3.46581 2.06787C3.32392 1.7841 3.04015 1.7841 2.75637 1.7841C2.4726 1.92599 2.33071 2.20976 2.33071 2.35165C1.76317 4.76372 2.04694 7.17579 3.04015 9.44597C3.18203 9.58786 3.04015 9.87163 2.89826 9.87163C2.89826 9.87163 2.75637 9.87163 2.61449 9.87163L1.05373 9.58786C0.628075 9.58786 0.344302 9.72974 0.202416 10.1554C0.202416 10.2973 0.202416 10.2973 0.202416 10.4392C0.486189 12.7094 1.62128 14.5539 3.60769 15.8309C3.74958 15.9727 3.89146 16.1146 3.74958 16.2565C3.74958 16.3984 3.60769 16.3984 3.60769 16.3984L2.89826 16.6822C2.4726 16.8241 2.33071 17.2497 2.4726 17.5335C3.32392 19.378 5.02656 20.655 7.01297 21.0807C7.15485 21.2225 7.29674 21.5063 7.15485 21.6482C7.15485 21.7901 7.01297 21.7901 6.87108 21.7901C5.02656 22.6414 3.04015 23.0671 0.911848 23.0671C0.486189 22.9252 0.202416 23.209 0.0605295 23.6346C-0.081357 24.0603 0.202416 24.3441 0.628075 24.4859C4.17524 26.1886 8.14806 27.1818 12.1209 27.1818C15.668 27.1818 19.0733 26.1886 22.0529 24.3441C27.019 21.0807 29.9986 15.5471 29.9986 9.58786V8.31088C29.9986 8.16899 30.1405 7.88522 30.2823 7.74333L32.5525 5.89881Z" fill="#1F1F1F"/>
</svg>
