<svg width="53" height="28" viewBox="0 0 53 28" fill="none" xmlns="http://www.w3.org/2000/svg">
<path d="M30.6066 27.4443C26.8401 27.4148 23.1932 26.2036 20.1441 24.0472L23.4323 19.2321C25.2259 20.7977 27.9761 21.7726 30.6664 21.7726C32.6991 21.7726 34.1639 20.7977 34.1639 19.4389C34.1639 17.7551 31.9817 17.0165 29.4707 16.1599C25.8537 14.9192 21.3697 13.4126 21.3697 8.50889C21.3697 6.17519 22.5057 3.98919 24.4487 2.65987C26.4814 1.21239 28.9027 0.444336 31.4137 0.473876C34.9112 0.473876 38.5282 1.77366 40.2022 3.01436L37.0037 7.88854C36.0172 7.20911 34.1639 6.14565 31.9518 6.14565C29.7397 6.14565 28.2451 7.03186 28.2451 8.36118C28.2451 9.69051 30.0984 10.3404 32.46 11.1084C36.2863 12.3491 41.0691 13.9148 41.0691 19.4684C41.0691 21.8021 39.993 23.8109 37.9304 25.2879C35.9574 26.6763 33.3867 27.4443 30.6066 27.4443ZM0.384949 1.00561H7.26031V26.9126H0.384949V1.00561ZM13.8068 9.66097C11.2361 9.66097 9.14356 7.59313 9.14356 5.05265C9.14356 2.51217 11.2361 0.444336 13.8068 0.444336C16.3776 0.444336 18.4701 2.51217 18.4701 5.05265C18.4701 7.59313 16.3776 9.66097 13.8068 9.66097Z" fill="black"/>
<path d="M48.0342 27.444C45.4634 27.444 43.3709 25.3762 43.3709 22.8357C43.3709 20.2953 45.4634 18.2274 48.0342 18.2274C50.6049 18.2274 52.6974 20.2953 52.6974 22.8357C52.6974 25.3762 50.6049 27.444 48.0342 27.444Z" fill="black"/>
</svg>
