<svg width="31" height="31" viewBox="0 0 31 31" fill="none" xmlns="http://www.w3.org/2000/svg">
<path fill-rule="evenodd" clip-rule="evenodd" d="M21.5469 8.97763C20.4652 7.96097 18.5679 6.74431 15.7553 6.74431C11.7944 6.74431 8.43263 9.36096 7.21773 12.9776L2.37475 9.21096C4.83785 4.31098 9.89717 0.944336 15.7553 0.944336C19.7995 0.944336 23.1779 2.42766 25.7741 4.84432L21.5469 8.97763ZM29.8183 13.2106C30.0346 14.1439 30.1345 15.0439 30.1345 16.2773C30.1345 20.8439 28.5035 24.6939 25.6743 27.3105L20.9478 23.6439C22.9449 22.2439 23.8436 20.1606 24.01 18.7773H15.7553V13.2106H29.8183ZM7.23429 18.9112C6.91815 17.978 6.73512 16.9781 6.73512 15.9449C6.73512 14.9116 6.91816 13.9109 7.21773 12.9776L2.37475 9.21096C1.35956 11.2443 0.7771 13.5283 0.7771 15.9449C0.7771 18.3616 1.35959 20.6449 2.37478 22.6782L7.07749 19.0332L2.39152 22.6777C4.85461 27.5777 9.89729 30.9443 15.7555 30.9443C19.7996 30.9443 23.1945 29.6105 25.6743 27.3105L20.9478 23.6439C19.683 24.5272 17.9856 25.1444 15.7555 25.1444C11.7945 25.1444 8.43255 22.5279 7.23429 18.9112ZM7.23429 18.9112C7.23432 18.9113 7.23425 18.9111 7.23429 18.9112V18.9112Z" fill="black"/>
</svg>
