<svg width="30" height="31" viewBox="0 0 30 31" fill="none" xmlns="http://www.w3.org/2000/svg">
<path d="M7.31411 7.28041V12.6569C7.31411 13.1794 7.73817 13.6034 8.26067 13.6034C8.78317 13.6034 9.20723 13.1794 9.20723 12.6569V7.28041L12.8041 2.48452C13.1184 2.0491 13.0187 1.44205 12.5833 1.12779C12.1479 0.813532 11.5408 0.913236 11.2265 1.34865L8.19756 5.3873L5.23169 1.34865C4.91743 0.930905 4.32425 0.845084 3.90651 1.15934C3.48876 1.4736 3.40294 2.06677 3.7172 2.48452L7.31411 7.28041ZM11.7945 6.97751V10.7637C11.7945 12.3325 13.0654 13.6034 14.6342 13.6034C16.2029 13.6034 17.4738 12.3325 17.4738 10.7637V6.97751C17.4738 5.40875 16.2029 4.13784 14.6342 4.13784C13.0654 4.13784 11.7945 5.40875 11.7945 6.97751ZM13.6876 6.97751C13.6876 6.45501 14.1117 6.03095 14.6342 6.03095C15.1567 6.03095 15.5807 6.45501 15.5807 6.97751V10.7637C15.5807 11.2862 15.1567 11.7103 14.6342 11.7103C14.1117 11.7103 13.6876 11.2862 13.6876 10.7637V6.97751ZM19.8213 12.5811C20.47 13.2298 21.3522 13.5933 22.2697 13.5908C22.8742 13.5845 23.4662 13.4191 23.9861 13.1112C24.1489 13.4053 24.4582 13.5883 24.7939 13.5908C25.3164 13.5908 25.7404 13.1667 25.7404 12.6442V5.07178C25.7404 4.54928 25.3164 4.12522 24.7939 4.12522C24.2714 4.12522 23.8473 4.54928 23.8473 5.07178V10.1201C23.8473 10.9909 23.1405 11.6977 22.2697 11.6977C21.3989 11.6977 20.6921 10.9909 20.6921 10.1201V5.07178C20.6921 4.54928 20.2681 4.12522 19.7456 4.12522C19.2231 4.12522 18.799 4.54928 18.799 5.07178V10.1201C18.7965 11.0439 19.1637 11.9312 19.8213 12.5811ZM23.2163 22.7408C23.2163 22.3925 22.9336 22.1098 22.5852 22.1098C22.2369 22.1098 21.9542 22.3925 21.9542 22.7408V23.3719H23.2163V22.7408ZM17.5369 22.1098C17.1886 22.1098 16.9059 22.3925 16.9059 22.7408V25.265C16.9059 25.6133 17.1886 25.896 17.5369 25.896C17.8853 25.896 18.168 25.6133 18.168 25.265V22.7408C18.168 22.3925 17.8853 22.1098 17.5369 22.1098ZM23.8473 15.7994H6.17824C3.04198 15.7994 0.498901 18.3425 0.498901 21.4788V25.265C0.498901 28.4013 3.04198 30.9443 6.17824 30.9443H23.8473C26.9836 30.9443 29.5266 28.4013 29.5266 25.265V21.4788C29.5266 18.3425 26.9836 15.7994 23.8473 15.7994ZM9.96447 20.8477H8.07136V26.5018C8.07136 26.8502 7.78865 27.1329 7.44032 27.1329C7.09199 27.1329 6.80928 26.8502 6.80928 26.5018V20.8477H4.91617C4.56783 20.8477 4.28513 20.565 4.28513 20.2167C4.28513 19.8684 4.56783 19.5857 4.91617 19.5857H9.96447C10.3128 19.5857 10.5955 19.8684 10.5955 20.2167C10.5955 20.565 10.3128 20.8477 9.96447 20.8477ZM14.3565 26.5271C14.359 26.8754 14.0776 27.1594 13.7292 27.1619C13.5563 27.1632 13.391 27.0937 13.2711 26.9688C13.02 27.0912 12.7436 27.1568 12.4634 27.1581C11.4184 27.1581 10.5703 26.31 10.5703 25.265V21.4788C10.5703 21.1304 10.853 20.8477 11.2013 20.8477C11.5496 20.8477 11.8323 21.1304 11.8323 21.4788V25.265C11.8323 25.6133 12.115 25.896 12.4634 25.896C12.8117 25.896 13.0944 25.6133 13.0944 25.265V21.4788C13.0944 21.1304 13.3771 20.8477 13.7255 20.8477C14.0738 20.8477 14.3565 21.1304 14.3565 21.4788V26.5271ZM19.4048 25.265C19.4048 26.31 18.5567 27.1581 17.5117 27.1581C17.2227 27.1568 16.9374 27.0874 16.6787 26.9562C16.4238 27.1934 16.0237 27.1783 15.7864 26.9221C15.6804 26.8073 15.6198 26.6571 15.6186 26.5018V18.9294C15.6186 18.581 15.9013 18.2983 16.2496 18.2983C16.5979 18.2983 16.8806 18.581 16.8806 18.9294V21.0118C17.0826 20.9373 17.2959 20.8995 17.5117 20.8982C18.5567 20.8982 19.4048 21.7463 19.4048 22.7913V25.265ZM22.6736 27.1581C21.5781 27.0937 20.711 26.2103 20.6669 25.1135V22.7408C20.6669 21.6958 21.515 20.8477 22.56 20.8477C23.605 20.8477 24.4531 21.6958 24.4531 22.7408V24.0029C24.4531 24.3513 24.1704 24.634 23.8221 24.634H21.9542V25.1135C21.9958 25.5136 22.3013 25.8355 22.6988 25.896C22.9891 25.896 23.4434 25.7698 23.4434 25.4291C23.4434 25.0807 23.7261 24.798 24.0745 24.798C24.4228 24.798 24.7055 25.0807 24.7055 25.4291C24.6475 26.445 23.7754 27.2212 22.7594 27.1632C22.7392 27.1619 22.719 27.1606 22.6988 27.1581H22.6736Z" fill="black"/>
</svg>
