<svg width="25" height="26" viewBox="0 0 25 26" fill="none" xmlns="http://www.w3.org/2000/svg">
<path d="M24.8964 9.97279C24.6817 9.33773 24.0379 8.91436 23.394 8.91436H16.848C16.6333 8.91436 16.4187 8.80852 16.3114 8.59683L14.0579 2.03457C13.7359 1.18783 12.7701 0.764458 12.0189 1.08199C11.5897 1.29367 11.2678 1.6112 11.0531 2.03457L8.69227 8.59683C8.58495 8.80852 8.37033 8.91436 8.15571 8.91436H1.60968C0.751183 8.91436 0 9.65526 0 10.502C0 10.9254 0.214624 11.4546 0.53656 11.7721L6.11678 16.3234C6.3314 16.4292 6.3314 16.6409 6.3314 16.8526L3.97054 23.7324C3.64861 24.5791 4.18516 25.4259 4.93635 25.7434C5.47291 25.9551 6.00947 25.8492 6.43871 25.5317L12.1262 21.4038C12.3409 21.298 12.5555 21.298 12.7701 21.4038L18.4576 25.5317C19.2088 26.0609 20.1746 25.8492 20.7112 25.2142C21.0331 24.7908 21.1404 24.2616 20.9258 23.7324L18.6723 16.8526C18.565 16.6409 18.6723 16.4292 18.8869 16.3234L24.4671 11.7721C25.0037 11.2429 25.111 10.6078 24.8964 9.97279Z" fill="#105394"/>
</svg>
