<svg width="16" height="15" viewBox="0 0 16 15" fill="none" xmlns="http://www.w3.org/2000/svg">
<path d="M7.20703 1.24219C7.31641 1.02344 7.45312 0.886719 7.67188 0.804688C7.89062 0.75 8.08203 0.75 8.30078 0.804688C8.51953 0.886719 8.68359 1.02344 8.79297 1.24219L10.5703 4.85156L14.5625 5.42578C14.7812 5.48047 14.9727 5.58984 15.1094 5.75391C15.2461 5.94531 15.3008 6.13672 15.3008 6.35547C15.3008 6.57422 15.2188 6.76562 15.0547 6.92969L12.1562 9.74609L12.8398 13.7383C12.8672 13.957 12.8125 14.1758 12.7031 14.3672C12.5938 14.5586 12.4297 14.668 12.2109 14.7227C11.9922 14.7773 11.7734 14.75 11.582 14.6406L8 12.7812L4.41797 14.6406C4.19922 14.75 4.00781 14.7773 3.78906 14.7227C3.57031 14.668 3.37891 14.5586 3.26953 14.3672C3.16016 14.1758 3.10547 13.957 3.16016 13.7383L3.84375 9.74609L0.945312 6.92969C0.78125 6.76562 0.671875 6.57422 0.671875 6.35547C0.671875 6.13672 0.726562 5.94531 0.863281 5.75391C1 5.58984 1.19141 5.48047 1.4375 5.42578L5.42969 4.85156L7.20703 1.24219Z" fill="black"/>
</svg>
